<svg width="36" height="36" viewBox="0 0 36 36" fill="none" xmlns="http://www.w3.org/2000/svg">
<path d="M18.2523 26.25H11.9517C11.4699 26.25 11.0316 25.9807 10.8248 25.5574C10.6179 25.1341 10.6808 24.6342 10.9853 24.2714L14.8434 19.6744H11.747C11.0584 19.6744 10.5 19.1316 10.5 18.4622C10.5 17.7928 11.0584 17.25 11.747 17.25H17.4711C17.9529 17.25 18.3912 17.5193 18.598 17.9426C18.8049 18.3659 18.742 18.8658 18.4375 19.2286L14.5794 23.8256H18.253C18.9416 23.8256 19.5 24.3684 19.5 25.0378C19.5 25.7072 18.9409 26.25 18.2523 26.25Z" fill="#8E96A9"/>
<path d="M8.06019 29.25H4.0696C3.7062 29.25 3.37562 29.0464 3.21988 28.7275C3.06413 28.4079 3.11146 28.0304 3.34126 27.7561L5.5843 25.0798H3.93981C3.42066 25.0798 3 24.6703 3 24.1649C3 23.6595 3.42066 23.25 3.93981 23.25H7.5647C7.92811 23.25 8.25868 23.4536 8.41443 23.7725C8.57017 24.0921 8.52284 24.4696 8.29304 24.7439L6.05001 27.4202H8.06019C8.57934 27.4202 9 27.8297 9 28.3351C9 28.8405 8.57934 29.25 8.06019 29.25Z" fill="#8E96A9"/>
<path d="M31.5626 21.75H21.2706C20.7157 21.75 20.2103 21.4059 19.9726 20.8661C19.7348 20.3255 19.8063 19.6867 20.1571 19.2232L27.2586 9.8457H20.9374C20.1439 9.8457 19.5 9.1527 19.5 8.29785C19.5 7.443 20.1432 6.75 20.9374 6.75H30.2857C30.8407 6.75 31.346 7.09414 31.5838 7.63392C31.8215 8.17449 31.7501 8.81328 31.3993 9.27684L24.2978 18.6543H31.5626C32.3561 18.6543 33 19.3473 33 20.2021C33 21.057 32.3568 21.75 31.5626 21.75Z" fill="#8E96A9"/>
</svg>
