<svg xmlns="http://www.w3.org/2000/svg" width="120" height="60" viewBox="0 0 120 60" fill="none">
  <g clip-path="url(#clip0_1051_5688)">
    <g filter="url(#filter0_d_1051_5688)">
      <mask id="path-1-outside-1_1051_5688" maskUnits="userSpaceOnUse" x="3.53653" y="3.39011" width="112.874" height="54.1906" fill="black">
        <rect fill="white" x="3.53653" y="3.39011" width="112.874" height="54.1906"/>
        <path d="M95.5993 8.57489C103.314 8.06218 109.984 13.9008 110.497 21.6157L111.226 32.5915C111.739 40.3065 105.9 46.9763 98.1854 47.4891L24.3482 52.396C16.6333 52.9087 9.96342 47.0701 9.45072 39.3551L8.72131 28.3793C8.2086 20.6644 14.0472 13.9945 21.7622 13.4818L95.5993 8.57489ZM49.1103 19.4001C47.1733 19.5289 45.7352 20.159 44.7964 21.29C43.8668 22.4204 43.4703 24.0137 43.6068 26.0688L44.3647 37.4734C44.5103 39.6649 45.1268 41.3095 46.2135 42.4065C47.3088 43.4938 48.816 43.9737 50.7349 43.8462C52.6538 43.7187 54.0797 43.0439 55.0124 41.8218C55.9535 40.59 56.3514 38.8781 56.2058 36.6864L55.4479 25.2819C55.3112 23.2268 54.7028 21.7003 53.6227 20.7034C52.5516 19.706 51.0473 19.2714 49.1103 19.4001ZM95.4125 16.3231C93.4755 16.4519 92.0373 17.0819 91.0986 18.2129C90.169 19.3434 89.7725 20.9366 89.909 22.9918L90.6669 34.3963C90.8125 36.5878 91.429 38.2325 92.5156 39.3295C93.6109 40.4167 95.1183 40.8966 97.0371 40.7692C98.956 40.6416 100.382 39.9668 101.315 38.7447C102.256 37.513 102.654 35.8011 102.508 33.6094L101.75 22.2048C101.613 20.1497 101.005 18.6232 99.9248 17.6263C98.8537 16.629 97.3494 16.1944 95.4125 16.3231ZM17.3658 21.729L18.9613 45.7385L23.6814 45.4249L23.0495 35.9165L25.0003 35.7869C26.3281 35.6986 27.3316 35.3351 28.0108 34.6962C28.6989 34.0567 29.1485 33.1909 29.3591 32.0991C29.569 30.9982 29.6257 29.7199 29.529 28.265C29.4287 26.7555 29.174 25.4658 28.765 24.397C28.356 23.3282 27.7407 22.5238 26.9194 21.9847C26.1071 21.4451 25.0368 21.2192 23.7092 21.3074L17.3658 21.729ZM30.0117 20.8886L31.6073 44.8981L36.3819 44.5808L35.6584 33.6947L37.923 33.5442L38.6464 44.4303L43.4211 44.113L41.8255 20.1035L37.0509 20.4208L37.6211 29.0015L35.3566 29.152L34.7863 20.5713L30.0117 20.8886ZM55.6329 19.1859L55.9393 23.7968L58.7905 23.6074L60.0796 43.006L64.8815 42.6869L63.5924 23.2882L66.4435 23.0988L66.1371 18.4878L55.6329 19.1859ZM68.2243 18.3491L67.5008 42.5128L72.1662 42.2027L72.2089 38.3085L75.101 38.1163L75.6995 41.9679L80.2422 41.666L76.3684 17.8079L68.2243 18.3491ZM78.4157 17.6719L78.7221 22.2828L81.5732 22.0933L82.8624 41.4919L87.6643 41.1728L86.3751 21.7742L89.2263 21.5847L88.9198 16.9738L78.4157 17.6719ZM49.4722 23.8155C50.1815 23.7684 50.5755 24.3363 50.6542 25.5183L51.4329 37.2366C51.5266 38.6462 51.2096 39.3752 50.4821 39.4236C50.0638 39.4513 49.753 39.3121 49.55 39.0059C49.3465 38.6906 49.2197 38.1598 49.1702 37.4143L48.3923 25.7097C48.3121 24.5005 48.6721 23.8688 49.4722 23.8155ZM95.7744 20.7385C96.4837 20.6913 96.8777 21.2592 96.9563 22.4412L97.7351 34.1595C97.8288 35.5691 97.5118 36.2981 96.7842 36.3465C96.366 36.3742 96.0552 36.235 95.8522 35.9289C95.6487 35.6135 95.5219 35.0827 95.4723 34.3373L94.6945 22.6326C94.6143 21.4235 94.9744 20.7918 95.7744 20.7385ZM72.6161 22.1679L74.4779 34.3075L72.2952 34.4525L72.3978 22.1824L72.6161 22.1679ZM22.9089 25.759C23.6362 25.7107 24.1122 25.9305 24.3365 26.4177C24.5692 26.8954 24.7158 27.5894 24.7763 28.4986C24.8409 29.4714 24.7897 30.215 24.623 30.7285C24.4562 31.242 23.9271 31.5284 23.0359 31.5876L22.763 31.6057L22.3768 25.7943L22.9089 25.759Z"/>
      </mask>
      <path d="M95.5993 8.57489C103.314 8.06218 109.984 13.9008 110.497 21.6157L111.226 32.5915C111.739 40.3065 105.9 46.9763 98.1854 47.4891L24.3482 52.396C16.6333 52.9087 9.96342 47.0701 9.45072 39.3551L8.72131 28.3793C8.2086 20.6644 14.0472 13.9945 21.7622 13.4818L95.5993 8.57489ZM49.1103 19.4001C47.1733 19.5289 45.7352 20.159 44.7964 21.29C43.8668 22.4204 43.4703 24.0137 43.6068 26.0688L44.3647 37.4734C44.5103 39.6649 45.1268 41.3095 46.2135 42.4065C47.3088 43.4938 48.816 43.9737 50.7349 43.8462C52.6538 43.7187 54.0797 43.0439 55.0124 41.8218C55.9535 40.59 56.3514 38.8781 56.2058 36.6864L55.4479 25.2819C55.3112 23.2268 54.7028 21.7003 53.6227 20.7034C52.5516 19.706 51.0473 19.2714 49.1103 19.4001ZM95.4125 16.3231C93.4755 16.4519 92.0373 17.0819 91.0986 18.2129C90.169 19.3434 89.7725 20.9366 89.909 22.9918L90.6669 34.3963C90.8125 36.5878 91.429 38.2325 92.5156 39.3295C93.6109 40.4167 95.1183 40.8966 97.0371 40.7692C98.956 40.6416 100.382 39.9668 101.315 38.7447C102.256 37.513 102.654 35.8011 102.508 33.6094L101.75 22.2048C101.613 20.1497 101.005 18.6232 99.9248 17.6263C98.8537 16.629 97.3494 16.1944 95.4125 16.3231ZM17.3658 21.729L18.9613 45.7385L23.6814 45.4249L23.0495 35.9165L25.0003 35.7869C26.3281 35.6986 27.3316 35.3351 28.0108 34.6962C28.6989 34.0567 29.1485 33.1909 29.3591 32.0991C29.569 30.9982 29.6257 29.7199 29.529 28.265C29.4287 26.7555 29.174 25.4658 28.765 24.397C28.356 23.3282 27.7407 22.5238 26.9194 21.9847C26.1071 21.4451 25.0368 21.2192 23.7092 21.3074L17.3658 21.729ZM30.0117 20.8886L31.6073 44.8981L36.3819 44.5808L35.6584 33.6947L37.923 33.5442L38.6464 44.4303L43.4211 44.113L41.8255 20.1035L37.0509 20.4208L37.6211 29.0015L35.3566 29.152L34.7863 20.5713L30.0117 20.8886ZM55.6329 19.1859L55.9393 23.7968L58.7905 23.6074L60.0796 43.006L64.8815 42.6869L63.5924 23.2882L66.4435 23.0988L66.1371 18.4878L55.6329 19.1859ZM68.2243 18.3491L67.5008 42.5128L72.1662 42.2027L72.2089 38.3085L75.101 38.1163L75.6995 41.9679L80.2422 41.666L76.3684 17.8079L68.2243 18.3491ZM78.4157 17.6719L78.7221 22.2828L81.5732 22.0933L82.8624 41.4919L87.6643 41.1728L86.3751 21.7742L89.2263 21.5847L88.9198 16.9738L78.4157 17.6719ZM49.4722 23.8155C50.1815 23.7684 50.5755 24.3363 50.6542 25.5183L51.4329 37.2366C51.5266 38.6462 51.2096 39.3752 50.4821 39.4236C50.0638 39.4513 49.753 39.3121 49.55 39.0059C49.3465 38.6906 49.2197 38.1598 49.1702 37.4143L48.3923 25.7097C48.3121 24.5005 48.6721 23.8688 49.4722 23.8155ZM95.7744 20.7385C96.4837 20.6913 96.8777 21.2592 96.9563 22.4412L97.7351 34.1595C97.8288 35.5691 97.5118 36.2981 96.7842 36.3465C96.366 36.3742 96.0552 36.235 95.8522 35.9289C95.6487 35.6135 95.5219 35.0827 95.4723 34.3373L94.6945 22.6326C94.6143 21.4235 94.9744 20.7918 95.7744 20.7385ZM72.6161 22.1679L74.4779 34.3075L72.2952 34.4525L72.3978 22.1824L72.6161 22.1679ZM22.9089 25.759C23.6362 25.7107 24.1122 25.9305 24.3365 26.4177C24.5692 26.8954 24.7158 27.5894 24.7763 28.4986C24.8409 29.4714 24.7897 30.215 24.623 30.7285C24.4562 31.242 23.9271 31.5284 23.0359 31.5876L22.763 31.6057L22.3768 25.7943L22.9089 25.759Z" fill="white"/>
      <path d="M95.5993 8.57489L95.334 4.58369L95.5993 8.57489ZM110.497 21.6157L114.488 21.3505V21.3505L110.497 21.6157ZM98.1854 47.4891L98.4506 51.4802V51.4802L98.1854 47.4891ZM9.45072 39.3551L5.45952 39.6204V39.6204L9.45072 39.3551ZM21.7622 13.4818L21.4969 9.49062V9.49062L21.7622 13.4818ZM49.1103 19.4001L48.8451 15.4089L48.845 15.4089L49.1103 19.4001ZM44.7964 21.29L41.7186 18.7352L41.7127 18.7423L41.7069 18.7493L44.7964 21.29ZM43.6068 26.0688L39.6156 26.3339L39.6156 26.3341L43.6068 26.0688ZM44.3647 37.4734L40.3735 37.7386L44.3647 37.4734ZM46.2135 42.4065L43.3717 45.2216L43.3835 45.2335L43.3955 45.2454L46.2135 42.4065ZM50.7349 43.8462L51.0001 47.8374L51.0001 47.8374L50.7349 43.8462ZM55.0124 41.8218L51.8339 39.3934L51.8327 39.395L55.0124 41.8218ZM56.2058 36.6864L52.2146 36.9517L56.2058 36.6864ZM55.4479 25.2819L59.4391 25.0167L59.439 25.0165L55.4479 25.2819ZM53.6227 20.7034L50.8967 23.6308L50.9032 23.6368L50.9098 23.6428L53.6227 20.7034ZM95.4125 16.3231L95.1472 12.3319L95.1471 12.3319L95.4125 16.3231ZM91.0986 18.2129L88.0207 15.6582L88.0148 15.6652L88.0091 15.6723L91.0986 18.2129ZM89.909 22.9918L85.9178 23.2568L85.9178 23.257L89.909 22.9918ZM90.6669 34.3963L94.6581 34.131L90.6669 34.3963ZM92.5156 39.3295L89.6738 42.1444L89.6856 42.1564L89.6976 42.1683L92.5156 39.3295ZM97.0371 40.7692L97.3022 44.7604L97.3023 44.7604L97.0371 40.7692ZM101.315 38.7447L98.1361 36.3162L98.1349 36.3179L101.315 38.7447ZM102.508 33.6094L106.499 33.3441L102.508 33.6094ZM101.75 22.2048L105.741 21.9396L105.741 21.9395L101.75 22.2048ZM99.9248 17.6263L97.199 20.5538L97.2055 20.5598L97.2119 20.5657L99.9248 17.6263ZM17.3658 21.729L17.1005 17.7378L13.1093 18.003L13.3746 21.9942L17.3658 21.729ZM18.9613 45.7385L14.9701 46.0038L15.2354 49.995L19.2266 49.7297L18.9613 45.7385ZM23.6814 45.4249L23.9466 49.4161L27.9378 49.1508L27.6726 45.1596L23.6814 45.4249ZM23.0495 35.9165L22.7843 31.9253L18.7931 32.1906L19.0583 36.1818L23.0495 35.9165ZM25.0003 35.7869L25.2655 39.7781L25.2655 39.7781L25.0003 35.7869ZM28.0108 34.6962L25.2878 31.7661L25.2789 31.7743L25.2701 31.7827L28.0108 34.6962ZM29.3591 32.0991L33.2867 32.8567L33.2883 32.8484L29.3591 32.0991ZM29.529 28.265L33.5202 27.9997L33.5202 27.9996L29.529 28.265ZM28.765 24.397L32.5009 22.9675L32.5008 22.9673L28.765 24.397ZM26.9194 21.9847L24.7058 25.3164L24.7151 25.3226L24.7244 25.3287L26.9194 21.9847ZM23.7092 21.3074L23.444 17.3162L23.4439 17.3162L23.7092 21.3074ZM30.0117 20.8886L29.7465 16.8974L25.7553 17.1626L26.0205 21.1538L30.0117 20.8886ZM31.6073 44.8981L27.6161 45.1634L27.8813 49.1546L31.8725 48.8893L31.6073 44.8981ZM36.3819 44.5808L36.6471 48.572L40.6383 48.3068L40.3731 44.3156L36.3819 44.5808ZM35.6584 33.6947L35.3932 29.7035L31.402 29.9687L31.6672 33.9599L35.6584 33.6947ZM37.923 33.5442L41.9142 33.279L41.6489 29.2878L37.6577 29.553L37.923 33.5442ZM38.6464 44.4303L34.6552 44.6956L34.9205 48.6868L38.9117 48.4215L38.6464 44.4303ZM43.4211 44.113L43.6863 48.1042L47.6775 47.839L47.4123 43.8478L43.4211 44.113ZM41.8255 20.1035L45.8167 19.8383L45.5514 15.8471L41.5602 16.1123L41.8255 20.1035ZM37.0509 20.4208L36.7856 16.4296L32.7944 16.6948L33.0597 20.686L37.0509 20.4208ZM37.6211 29.0015L37.8863 32.9927L41.8775 32.7274L41.6123 28.7362L37.6211 29.0015ZM35.3566 29.152L31.3654 29.4172L31.6306 33.4084L35.6218 33.1432L35.3566 29.152ZM34.7863 20.5713L38.7775 20.3061L38.5123 16.3149L34.5211 16.5801L34.7863 20.5713ZM55.6329 19.1859L55.3677 15.1947L51.3765 15.46L51.6417 19.4511L55.6329 19.1859ZM55.9393 23.7968L51.9481 24.0621L52.2134 28.0533L56.2046 27.788L55.9393 23.7968ZM58.7905 23.6074L62.7817 23.3421L62.5164 19.3509L58.5252 19.6162L58.7905 23.6074ZM60.0796 43.006L56.0884 43.2712L56.3537 47.2624L60.3449 46.9972L60.0796 43.006ZM64.8815 42.6869L65.1468 46.6781L69.138 46.4128L68.8727 42.4216L64.8815 42.6869ZM63.5924 23.2882L63.3271 19.297L59.3359 19.5623L59.6012 23.5535L63.5924 23.2882ZM66.4435 23.0988L66.7087 27.09L70.6999 26.8247L70.4347 22.8335L66.4435 23.0988ZM66.1371 18.4878L70.1283 18.2226L69.863 14.2314L65.8718 14.4966L66.1371 18.4878ZM68.2243 18.3491L67.959 14.3579L64.3348 14.5988L64.2261 18.2294L68.2243 18.3491ZM67.5008 42.5128L63.5025 42.3931L63.3707 46.7961L67.766 46.504L67.5008 42.5128ZM72.1662 42.2027L72.4315 46.1939L76.1255 45.9485L76.166 42.2465L72.1662 42.2027ZM72.2089 38.3085L71.9437 34.3173L68.2497 34.5628L68.2091 38.2647L72.2089 38.3085ZM75.101 38.1163L79.0535 37.5021L78.491 33.8822L74.8357 34.1251L75.101 38.1163ZM75.6995 41.9679L71.7469 42.5821L72.3094 46.2021L75.9647 45.9591L75.6995 41.9679ZM80.2422 41.666L80.5074 45.6572L84.8953 45.3656L84.1905 41.025L80.2422 41.666ZM76.3684 17.8079L80.3167 17.1668L79.7336 13.5754L76.1032 13.8167L76.3684 17.8079ZM78.4157 17.6719L78.1504 13.6807L74.1592 13.9459L74.4245 17.9371L78.4157 17.6719ZM78.7221 22.2828L74.7309 22.548L74.9961 26.5392L78.9873 26.274L78.7221 22.2828ZM81.5732 22.0933L85.5644 21.8281L85.2992 17.8369L81.308 18.1021L81.5732 22.0933ZM82.8624 41.4919L78.8712 41.7572L79.1364 45.7484L83.1276 45.4831L82.8624 41.4919ZM87.6643 41.1728L87.9295 45.164L91.9207 44.8988L91.6555 40.9076L87.6643 41.1728ZM86.3751 21.7742L86.1099 17.783L82.1187 18.0482L82.3839 22.0394L86.3751 21.7742ZM89.2263 21.5847L89.4915 25.5759L93.4827 25.3107L93.2175 21.3195L89.2263 21.5847ZM88.9198 16.9738L92.911 16.7085L92.6458 12.7174L88.6546 12.9826L88.9198 16.9738ZM49.4722 23.8155L49.207 19.8244L49.2069 19.8244L49.4722 23.8155ZM50.6542 25.5183L54.6454 25.253L54.6453 25.2527L50.6542 25.5183ZM51.4329 37.2366L47.4417 37.5018L51.4329 37.2366ZM50.4821 39.4236L50.7472 43.4148L50.7473 43.4148L50.4821 39.4236ZM49.55 39.0059L46.189 41.1748L46.2025 41.1957L46.2163 41.2164L49.55 39.0059ZM48.3923 25.7097L44.4011 25.9746L44.4011 25.9749L48.3923 25.7097ZM95.7744 20.7385L95.5092 16.7473L95.5084 16.7473L95.7744 20.7385ZM96.9563 22.4412L100.948 22.176L100.947 22.1756L96.9563 22.4412ZM96.7842 36.3465L97.0488 40.3377L97.0495 40.3377L96.7842 36.3465ZM95.8522 35.9289L92.491 38.0974L92.5046 38.1185L92.5184 38.1394L95.8522 35.9289ZM94.6945 22.6326L90.7033 22.8975L90.7033 22.8979L94.6945 22.6326ZM72.6161 22.1679L76.5698 21.5615L76.0134 17.9333L72.3508 18.1767L72.6161 22.1679ZM74.4779 34.3075L74.7431 38.2987L79.0924 38.0096L78.4316 33.7011L74.4779 34.3075ZM72.2952 34.4525L68.2953 34.4191L68.2593 38.7296L72.5604 38.4437L72.2952 34.4525ZM72.3978 22.1824L72.1326 18.1912L68.429 18.4373L68.3979 22.1489L72.3978 22.1824ZM22.9089 25.759L22.6437 21.7678L22.6436 21.7678L22.9089 25.759ZM24.3365 26.4177L20.7031 28.0904L20.7213 28.13L20.7404 28.1692L24.3365 26.4177ZM24.7763 28.4986L28.7675 28.2334L28.7675 28.2332L24.7763 28.4986ZM24.623 30.7285L28.4273 31.9645L28.4275 31.9638L24.623 30.7285ZM23.0359 31.5876L23.3011 35.5788L23.3012 35.5788L23.0359 31.5876ZM22.763 31.6057L18.7718 31.871L19.0371 35.8622L23.0283 35.5969L22.763 31.6057ZM22.3768 25.7943L22.1116 21.8031L18.1204 22.0684L18.3856 26.0596L22.3768 25.7943ZM95.5993 8.57489L95.8645 12.5661C101.375 12.1999 106.139 16.3703 106.506 21.881L110.497 21.6157L114.488 21.3505C113.829 11.4313 105.253 3.9245 95.334 4.58369L95.5993 8.57489ZM110.497 21.6157L106.506 21.881L107.235 32.8568L111.226 32.5915L115.217 32.3263L114.488 21.3505L110.497 21.6157ZM111.226 32.5915L107.235 32.8568C107.601 38.3675 103.431 43.1316 97.9201 43.4979L98.1854 47.4891L98.4506 51.4802C108.37 50.8211 115.877 42.2455 115.217 32.3263L111.226 32.5915ZM98.1854 47.4891L97.9201 43.4979L24.083 48.4048L24.3482 52.396L24.6135 56.3872L98.4506 51.4802L98.1854 47.4891ZM24.3482 52.396L24.083 48.4048C18.5723 48.771 13.8081 44.6006 13.4419 39.0899L9.45072 39.3551L5.45952 39.6204C6.11871 49.5396 14.6942 57.0464 24.6135 56.3872L24.3482 52.396ZM9.45072 39.3551L13.4419 39.0899L12.7125 28.1141L8.72131 28.3793L4.73011 28.6446L5.45952 39.6204L9.45072 39.3551ZM8.72131 28.3793L12.7125 28.1141C12.3463 22.6034 16.5167 17.8392 22.0274 17.473L21.7622 13.4818L21.4969 9.49062C11.5777 10.1498 4.07092 18.7253 4.73011 28.6446L8.72131 28.3793ZM21.7622 13.4818L22.0274 17.473L95.8645 12.5661L95.5993 8.57489L95.334 4.58369L21.4969 9.49062L21.7622 13.4818ZM49.1103 19.4001L48.845 15.4089C46.18 15.5861 43.5626 16.5136 41.7186 18.7352L44.7964 21.29L47.8743 23.8447C47.9078 23.8044 48.1667 23.4717 49.3756 23.3913L49.1103 19.4001ZM44.7964 21.29L41.7069 18.7493C39.9073 20.9377 39.4392 23.6784 39.6156 26.3339L43.6068 26.0688L47.598 25.8037C47.5014 24.349 47.8263 23.9031 47.886 23.8306L44.7964 21.29ZM43.6068 26.0688L39.6156 26.3341L40.3735 37.7386L44.3647 37.4734L48.3559 37.2081L47.598 25.8036L43.6068 26.0688ZM44.3647 37.4734L40.3735 37.7386C40.5563 40.4901 41.3702 43.201 43.3717 45.2216L46.2135 42.4065L49.0552 39.5915C48.8834 39.418 48.4643 38.8398 48.3559 37.2081L44.3647 37.4734ZM46.2135 42.4065L43.3955 45.2454C45.4995 47.3339 48.2399 48.0208 51.0001 47.8374L50.7349 43.8462L50.4697 39.855C49.392 39.9266 49.1181 39.6537 49.0315 39.5677L46.2135 42.4065ZM50.7349 43.8462L51.0001 47.8374C53.7588 47.6541 56.3894 46.6106 58.1921 44.2486L55.0124 41.8218L51.8327 39.395C51.7699 39.4772 51.5489 39.7833 50.4697 39.855L50.7349 43.8462ZM55.0124 41.8218L58.1909 44.2502C59.9245 41.9812 60.3803 39.1804 60.197 36.4212L56.2058 36.6864L52.2146 36.9517C52.3225 38.5757 51.9825 39.1989 51.8339 39.3934L55.0124 41.8218ZM56.2058 36.6864L60.197 36.4212L59.4391 25.0167L55.4479 25.2819L51.4567 25.5471L52.2146 36.9517L56.2058 36.6864ZM55.4479 25.2819L59.439 25.0165C59.2619 22.3524 58.4258 19.6932 56.3356 17.764L53.6227 20.7034L50.9098 23.6428C50.9797 23.7074 51.3605 24.1012 51.4567 25.5473L55.4479 25.2819ZM53.6227 20.7034L56.3486 17.7761C54.2307 15.8039 51.5079 15.232 48.8451 15.4089L49.1103 19.4001L49.3755 23.3913C50.5866 23.3109 50.8725 23.6081 50.8967 23.6308L53.6227 20.7034ZM95.4125 16.3231L95.1471 12.3319C92.4824 12.5091 89.8648 13.4364 88.0207 15.6582L91.0986 18.2129L94.1765 20.7676C94.2099 20.7274 94.4687 20.3947 95.6778 20.3143L95.4125 16.3231ZM91.0986 18.2129L88.0091 15.6723C86.2095 17.8606 85.7414 20.6013 85.9178 23.2568L89.909 22.9918L93.9002 22.7267C93.8035 21.2719 94.1285 20.8261 94.1881 20.7535L91.0986 18.2129ZM89.909 22.9918L85.9178 23.257L86.6757 34.6615L90.6669 34.3963L94.6581 34.131L93.9002 22.7265L89.909 22.9918ZM90.6669 34.3963L86.6757 34.6615C86.8585 37.413 87.6725 40.124 89.6738 42.1444L92.5156 39.3295L95.3575 36.5146C95.1856 36.341 94.7665 35.7626 94.6581 34.131L90.6669 34.3963ZM92.5156 39.3295L89.6976 42.1683C91.8016 44.2569 94.5423 44.9437 97.3022 44.7604L97.0371 40.7692L96.7719 36.778C95.6942 36.8495 95.4202 36.5766 95.3336 36.4907L92.5156 39.3295ZM97.0371 40.7692L97.3023 44.7604C100.061 44.577 102.692 43.5335 104.494 41.1716L101.315 38.7447L98.1349 36.3179C98.0721 36.4001 97.851 36.7062 96.7718 36.778L97.0371 40.7692ZM101.315 38.7447L104.493 41.1732C106.227 38.9041 106.682 36.1033 106.499 33.3441L102.508 33.6094L98.5167 33.8746C98.6247 35.4988 98.2847 36.1218 98.1361 36.3162L101.315 38.7447ZM102.508 33.6094L106.499 33.3441L105.741 21.9396L101.75 22.2048L97.7588 22.4701L98.5167 33.8746L102.508 33.6094ZM101.75 22.2048L105.741 21.9395C105.564 19.2753 104.728 16.6161 102.638 14.6869L99.9248 17.6263L97.2119 20.5657C97.2819 20.6303 97.6627 21.0241 97.7588 22.4702L101.75 22.2048ZM99.9248 17.6263L102.651 14.6989C100.533 12.727 97.8101 12.1549 95.1472 12.3319L95.4125 16.3231L95.6777 20.3143C96.8886 20.2338 97.1746 20.5311 97.199 20.5538L99.9248 17.6263ZM17.3658 21.729L13.3746 21.9942L14.9701 46.0038L18.9613 45.7385L22.9525 45.4733L21.357 21.4638L17.3658 21.729ZM18.9613 45.7385L19.2266 49.7297L23.9466 49.4161L23.6814 45.4249L23.4162 41.4337L18.6961 41.7473L18.9613 45.7385ZM23.6814 45.4249L27.6726 45.1596L27.0407 35.6513L23.0495 35.9165L19.0583 36.1818L19.6902 45.6901L23.6814 45.4249ZM23.0495 35.9165L23.3147 39.9077L25.2655 39.7781L25.0003 35.7869L24.735 31.7957L22.7843 31.9253L23.0495 35.9165ZM25.0003 35.7869L25.2655 39.7781C27.1311 39.6541 29.1599 39.1068 30.7514 37.6097L28.0108 34.6962L25.2701 31.7827C25.3808 31.6785 25.4494 31.6644 25.3862 31.6872C25.312 31.7141 25.1123 31.7706 24.735 31.7957L25.0003 35.7869ZM28.0108 34.6962L30.7337 37.6263C32.1517 36.3086 32.9456 34.6249 33.2867 32.8567L29.3591 32.0991L25.4315 31.3415C25.3892 31.561 25.3385 31.6768 25.314 31.7241C25.3016 31.748 25.2934 31.7593 25.291 31.7623C25.2889 31.7652 25.2883 31.7657 25.2878 31.7661L28.0108 34.6962ZM29.3591 32.0991L33.2883 32.8484C33.5777 31.3308 33.6331 29.6985 33.5202 27.9997L29.529 28.265L25.5379 28.5302C25.6183 29.7413 25.5604 30.6657 25.4299 31.3498L29.3591 32.0991ZM29.529 28.265L33.5202 27.9996C33.4014 26.2118 33.0901 24.5075 32.5009 22.9675L28.765 24.397L25.0292 25.8264C25.2579 26.4242 25.456 27.2991 25.5379 28.5303L29.529 28.265ZM28.765 24.397L32.5008 22.9673C31.843 21.2484 30.7484 19.7133 29.1143 18.6408L26.9194 21.9847L24.7244 25.3287C24.733 25.3343 24.869 25.408 25.0293 25.8266L28.765 24.397ZM26.9194 21.9847L29.1329 18.653C27.3638 17.4776 25.3329 17.1907 23.444 17.3162L23.7092 21.3074L23.9744 25.2986C24.7408 25.2477 24.8504 25.4125 24.7058 25.3164L26.9194 21.9847ZM23.7092 21.3074L23.4439 17.3162L17.1005 17.7378L17.3658 21.729L17.631 25.7202L23.9744 25.2986L23.7092 21.3074ZM30.0117 20.8886L26.0205 21.1538L27.6161 45.1634L31.6073 44.8981L35.5985 44.6329L34.0029 20.6234L30.0117 20.8886ZM31.6073 44.8981L31.8725 48.8893L36.6471 48.572L36.3819 44.5808L36.1167 40.5896L31.342 40.9069L31.6073 44.8981ZM36.3819 44.5808L40.3731 44.3156L39.6496 33.4294L35.6584 33.6947L31.6672 33.9599L32.3907 44.8461L36.3819 44.5808ZM35.6584 33.6947L35.9237 37.6859L38.1882 37.5354L37.923 33.5442L37.6577 29.553L35.3932 29.7035L35.6584 33.6947ZM37.923 33.5442L33.9318 33.8094L34.6552 44.6956L38.6464 44.4303L42.6376 44.1651L41.9142 33.279L37.923 33.5442ZM38.6464 44.4303L38.9117 48.4215L43.6863 48.1042L43.4211 44.113L43.1558 40.1218L38.3812 40.4391L38.6464 44.4303ZM43.4211 44.113L47.4123 43.8478L45.8167 19.8383L41.8255 20.1035L37.8343 20.3687L39.4299 44.3783L43.4211 44.113ZM41.8255 20.1035L41.5602 16.1123L36.7856 16.4296L37.0509 20.4208L37.3161 24.412L42.0907 24.0947L41.8255 20.1035ZM37.0509 20.4208L33.0597 20.686L33.6299 29.2667L37.6211 29.0015L41.6123 28.7362L41.042 20.1556L37.0509 20.4208ZM37.6211 29.0015L37.3558 25.0103L35.0913 25.1608L35.3566 29.152L35.6218 33.1432L37.8863 32.9927L37.6211 29.0015ZM35.3566 29.152L39.3477 28.8867L38.7775 20.3061L34.7863 20.5713L30.7951 20.8365L31.3654 29.4172L35.3566 29.152ZM34.7863 20.5713L34.5211 16.5801L29.7465 16.8974L30.0117 20.8886L30.2769 24.8798L35.0516 24.5625L34.7863 20.5713ZM55.6329 19.1859L51.6417 19.4511L51.9481 24.0621L55.9393 23.7968L59.9305 23.5316L59.6241 18.9207L55.6329 19.1859ZM55.9393 23.7968L56.2046 27.788L59.0557 27.5986L58.7905 23.6074L58.5252 19.6162L55.6741 19.8056L55.9393 23.7968ZM58.7905 23.6074L54.7993 23.8726L56.0884 43.2712L60.0796 43.006L64.0708 42.7407L62.7817 23.3421L58.7905 23.6074ZM60.0796 43.006L60.3449 46.9972L65.1468 46.6781L64.8815 42.6869L64.6163 38.6957L59.8144 39.0148L60.0796 43.006ZM64.8815 42.6869L68.8727 42.4216L67.5836 23.023L63.5924 23.2882L59.6012 23.5535L60.8903 42.9521L64.8815 42.6869ZM63.5924 23.2882L63.8576 27.2794L66.7087 27.09L66.4435 23.0988L66.1783 19.1076L63.3271 19.297L63.5924 23.2882ZM66.4435 23.0988L70.4347 22.8335L70.1283 18.2226L66.1371 18.4878L62.1459 18.7531L62.4523 23.364L66.4435 23.0988ZM66.1371 18.4878L65.8718 14.4966L55.3677 15.1947L55.6329 19.1859L55.8981 23.1771L66.4023 22.479L66.1371 18.4878ZM68.2243 18.3491L64.2261 18.2294L63.5025 42.3931L67.5008 42.5128L71.499 42.6325L72.2225 18.4689L68.2243 18.3491ZM67.5008 42.5128L67.766 46.504L72.4315 46.1939L72.1662 42.2027L71.901 38.2115L67.2355 38.5216L67.5008 42.5128ZM72.1662 42.2027L76.166 42.2465L76.2087 38.3523L72.2089 38.3085L68.2091 38.2647L68.1665 42.1589L72.1662 42.2027ZM72.2089 38.3085L72.4741 42.2997L75.3662 42.1075L75.101 38.1163L74.8357 34.1251L71.9437 34.3173L72.2089 38.3085ZM75.101 38.1163L71.1484 38.7305L71.7469 42.5821L75.6995 41.9679L79.652 41.3537L79.0535 37.5021L75.101 38.1163ZM75.6995 41.9679L75.9647 45.9591L80.5074 45.6572L80.2422 41.666L79.9769 37.6749L75.4342 37.9767L75.6995 41.9679ZM80.2422 41.666L84.1905 41.025L80.3167 17.1668L76.3684 17.8079L72.4201 18.449L76.2939 42.3071L80.2422 41.666ZM76.3684 17.8079L76.1032 13.8167L67.959 14.3579L68.2243 18.3491L68.4895 22.3403L76.6337 21.7991L76.3684 17.8079ZM78.4157 17.6719L74.4245 17.9371L74.7309 22.548L78.7221 22.2828L82.7133 22.0175L82.4069 17.4066L78.4157 17.6719ZM78.7221 22.2828L78.9873 26.274L81.8385 26.0845L81.5732 22.0933L81.308 18.1021L78.4568 18.2916L78.7221 22.2828ZM81.5732 22.0933L77.582 22.3585L78.8712 41.7572L82.8624 41.4919L86.8536 41.2267L85.5644 21.8281L81.5732 22.0933ZM82.8624 41.4919L83.1276 45.4831L87.9295 45.164L87.6643 41.1728L87.399 37.1816L82.5971 37.5007L82.8624 41.4919ZM87.6643 41.1728L91.6555 40.9076L90.3663 21.5089L86.3751 21.7742L82.3839 22.0394L83.6731 41.438L87.6643 41.1728ZM86.3751 21.7742L86.6404 25.7654L89.4915 25.5759L89.2263 21.5847L88.961 17.5935L86.1099 17.783L86.3751 21.7742ZM89.2263 21.5847L93.2175 21.3195L92.911 16.7085L88.9198 16.9738L84.9286 17.239L85.2351 21.8499L89.2263 21.5847ZM88.9198 16.9738L88.6546 12.9826L78.1504 13.6807L78.4157 17.6719L78.6809 21.663L89.1851 20.965L88.9198 16.9738ZM49.4722 23.8155L49.7375 27.8067C49.3491 27.8326 48.8098 27.7828 48.238 27.5129C47.6607 27.2405 47.2609 26.8431 47.0136 26.4867C46.5981 25.888 46.6416 25.4619 46.663 25.7838L50.6542 25.5183L54.6453 25.2527C54.5881 24.3927 54.3953 23.0916 53.5858 21.9253C52.5601 20.4474 50.9148 19.7109 49.207 19.8244L49.4722 23.8155ZM50.6542 25.5183L46.663 25.7835L47.4417 37.5018L51.4329 37.2366L55.4241 36.9713L54.6454 25.253L50.6542 25.5183ZM51.4329 37.2366L47.4417 37.5018C47.4744 37.9929 47.3735 37.7602 47.5972 37.2457C47.7352 36.9283 48.0213 36.4537 48.5626 36.0508C49.122 35.6345 49.7258 35.465 50.2168 35.4324L50.4821 39.4236L50.7473 43.4148C51.6021 43.358 52.5184 43.0792 53.3389 42.4685C54.1413 41.8713 54.6373 41.1173 54.9338 40.4354C55.4744 39.1919 55.4851 37.8898 55.4241 36.9713L51.4329 37.2366ZM50.4821 39.4236L50.217 35.4324C50.511 35.4128 51.0074 35.4372 51.5708 35.6896C52.1611 35.9541 52.6013 36.3695 52.8837 36.7955L49.55 39.0059L46.2163 41.2164C47.3386 42.909 49.1397 43.5215 50.7472 43.4148L50.4821 39.4236ZM49.55 39.0059L52.9109 36.8371C53.032 37.0246 53.1013 37.1807 53.138 37.2747C53.1753 37.3701 53.1902 37.4309 53.1931 37.4428C53.1968 37.4583 53.1763 37.3736 53.1614 37.1491L49.1702 37.4143L45.179 37.6796C45.2373 38.5564 45.4044 39.959 46.189 41.1748L49.55 39.0059ZM49.1702 37.4143L53.1614 37.1491L52.3835 25.4444L48.3923 25.7097L44.4011 25.9749L45.179 37.6796L49.1702 37.4143ZM48.3923 25.7097L52.3836 25.4448C52.3643 25.1541 52.467 25.6263 52.0771 26.3101C51.8504 26.7079 51.4899 27.1123 50.9879 27.4086C50.5012 27.6959 50.0436 27.7864 49.7376 27.8067L49.4722 23.8155L49.2069 19.8244C47.6302 19.9292 46.0489 20.7312 45.1271 22.3481C44.3773 23.6634 44.3402 25.0561 44.4011 25.9746L48.3923 25.7097ZM95.7744 20.7385L96.0396 24.7297C95.6513 24.7555 95.112 24.7057 94.5402 24.4359C93.9629 24.1635 93.5631 23.766 93.3158 23.4096C92.9003 22.811 92.9437 22.3848 92.9651 22.7068L96.9563 22.4412L100.947 22.1756C100.89 21.3156 100.697 20.0145 99.8879 18.8482C98.8622 17.3704 97.217 16.6338 95.5092 16.7473L95.7744 20.7385ZM96.9563 22.4412L92.9651 22.7064L93.7439 34.4247L97.7351 34.1595L101.726 33.8943L100.948 22.176L96.9563 22.4412ZM97.7351 34.1595L93.7439 34.4247C93.7765 34.9159 93.6756 34.6831 93.8993 34.1686C94.0373 33.8512 94.3235 33.3766 94.8648 32.9738C95.4242 32.5574 96.028 32.3879 96.519 32.3553L96.7842 36.3465L97.0495 40.3377C97.9043 40.2809 98.8205 40.0021 99.6411 39.3915C100.444 38.7943 100.939 38.0402 101.236 37.3583C101.777 36.1149 101.787 34.8128 101.726 33.8943L97.7351 34.1595ZM96.7842 36.3465L96.5197 32.3553C96.8137 32.3358 97.3098 32.3602 97.8728 32.6124C98.4627 32.8767 98.9031 33.2918 99.1859 33.7184L95.8522 35.9289L92.5184 38.1394C93.641 39.8323 95.4425 40.4442 97.0488 40.3377L96.7842 36.3465ZM95.8522 35.9289L99.2133 33.7603C99.3343 33.9478 99.4036 34.1038 99.4402 34.1977C99.4774 34.2931 99.4924 34.3538 99.4952 34.3656C99.4989 34.3811 99.4785 34.2964 99.4635 34.072L95.4723 34.3373L91.4812 34.6025C91.5394 35.4796 91.7067 36.8818 92.491 38.0974L95.8522 35.9289ZM95.4723 34.3373L99.4635 34.072L98.6857 22.3674L94.6945 22.6326L90.7033 22.8979L91.4812 34.6025L95.4723 34.3373ZM94.6945 22.6326L98.6857 22.3677C98.6665 22.0774 98.7691 22.5496 98.3793 23.2333C98.1526 23.6309 97.7922 24.0352 97.2905 24.3314C96.8039 24.6187 96.3464 24.7092 96.0404 24.7296L95.7744 20.7385L95.5084 16.7473C93.9319 16.8524 92.351 17.6546 91.4294 19.271C90.6796 20.5861 90.6423 21.9787 90.7033 22.8975L94.6945 22.6326ZM72.6161 22.1679L68.6623 22.7743L70.5241 34.9138L74.4779 34.3075L78.4316 33.7011L76.5698 21.5615L72.6161 22.1679ZM74.4779 34.3075L74.2126 30.3163L72.03 30.4613L72.2952 34.4525L72.5604 38.4437L74.7431 38.2987L74.4779 34.3075ZM72.2952 34.4525L76.2951 34.486L76.3977 22.2158L72.3978 22.1824L68.3979 22.1489L68.2953 34.4191L72.2952 34.4525ZM72.3978 22.1824L72.663 26.1736L72.8813 26.1591L72.6161 22.1679L72.3508 18.1767L72.1326 18.1912L72.3978 22.1824ZM22.9089 25.759L23.174 29.7502C23.1172 29.7539 22.6947 29.7776 22.1352 29.5194C21.4864 29.22 20.9791 28.6899 20.7031 28.0904L24.3365 26.4177L27.97 24.745C27.4697 23.6583 26.6123 22.7747 25.4874 22.2556C24.4521 21.7778 23.4278 21.7157 22.6437 21.7678L22.9089 25.759ZM24.3365 26.4177L20.7404 28.1692C20.675 28.0349 20.6807 27.997 20.7074 28.1233C20.7324 28.2415 20.7641 28.4479 20.7851 28.764L24.7763 28.4986L28.7675 28.2332C28.6937 27.1241 28.4984 25.8278 27.9327 24.6662L24.3365 26.4177ZM24.7763 28.4986L20.7851 28.7638C20.8089 29.1218 20.8059 29.3643 20.7958 29.5115C20.7849 29.6703 20.7707 29.6405 20.8185 29.4932L24.623 30.7285L28.4275 31.9638C28.8305 30.7226 28.8431 29.3721 28.7675 28.2334L24.7763 28.4986ZM24.623 30.7285L20.8188 29.4925C21.0898 28.6582 21.671 28.0954 22.197 27.8106C22.6227 27.5803 22.8965 27.588 22.7706 27.5964L23.0359 31.5876L23.3012 35.5788C24.6368 35.49 27.4675 34.9186 28.4273 31.9645L24.623 30.7285ZM23.0359 31.5876L22.7706 27.5964L22.4978 27.6145L22.763 31.6057L23.0283 35.5969L23.3011 35.5788L23.0359 31.5876ZM22.763 31.6057L26.7542 31.3405L26.368 25.5291L22.3768 25.7943L18.3856 26.0596L18.7718 31.871L22.763 31.6057ZM22.3768 25.7943L22.6421 29.7855L23.1741 29.7502L22.9089 25.759L22.6436 21.7678L22.1116 21.8031L22.3768 25.7943Z" fill="#232936" mask="url(#path-1-outside-1_1051_5688)"/>
    </g>
  </g>
  <defs>
    <filter id="filter0_d_1051_5688" x="-15.3105" y="-15.457" width="150.568" height="91.8848" filterUnits="userSpaceOnUse" color-interpolation-filters="sRGB">
      <feFlood flood-opacity="0" result="BackgroundImageFix"/>
      <feColorMatrix in="SourceAlpha" type="matrix" values="0 0 0 0 0 0 0 0 0 0 0 0 0 0 0 0 0 0 127 0" result="hardAlpha"/>
      <feOffset/>
      <feGaussianBlur stdDeviation="10"/>
      <feComposite in2="hardAlpha" operator="out"/>
      <feColorMatrix type="matrix" values="0 0 0 0 0.556863 0 0 0 0 0.588235 0 0 0 0 0.662745 0 0 0 0.12 0"/>
      <feBlend mode="normal" in2="BackgroundImageFix" result="effect1_dropShadow_1051_5688"/>
      <feBlend mode="normal" in="SourceGraphic" in2="effect1_dropShadow_1051_5688" result="shape"/>
    </filter>
    <clipPath id="clip0_1051_5688">
      <rect width="120" height="60" fill="white"/>
    </clipPath>
  </defs>
</svg>
