<svg width="24" height="24" viewBox="0 0 24 24" fill="none" xmlns="http://www.w3.org/2000/svg">
<path d="M11.6988 12.7093L15.5031 8.90484C15.7144 8.69367 15.9797 8.58809 16.2988 8.58809C16.618 8.58809 16.8832 8.69367 17.0946 8.90484C17.3057 9.11617 17.4113 9.38142 17.4113 9.70059C17.4113 10.0198 17.3057 10.285 17.0946 10.4963L12.5006 15.0903C12.3886 15.2022 12.2642 15.2839 12.1276 15.3356C11.9911 15.3873 11.8482 15.4131 11.6988 15.4131C11.5495 15.4131 11.4066 15.3873 11.2701 15.3356C11.1334 15.2839 11.0091 15.2022 10.8971 15.0903L6.30308 10.4963C6.09192 10.285 5.98633 10.0198 5.98633 9.70059C5.98633 9.38142 6.09192 9.11617 6.30308 8.90484C6.51442 8.69367 6.77967 8.58809 7.09883 8.58809C7.418 8.58809 7.68325 8.69367 7.89458 8.90484L11.6988 12.7093Z" fill="#232936"/>
</svg>
