<svg width="24" height="24" viewBox="0 0 24 24" fill="none" xmlns="http://www.w3.org/2000/svg">
<mask id="mask0_1210_9507" style="mask-type:alpha" maskUnits="userSpaceOnUse" x="0" y="0" width="24" height="24">
<rect width="24" height="24" fill="#D9D9D9"/>
</mask>
<g mask="url(#mask0_1210_9507)">
<path d="M10.5821 13.5906L8.58763 11.5961C8.38046 11.3888 8.11921 11.2851 7.80387 11.2851C7.48871 11.2851 7.22746 11.3888 7.02012 11.5961C6.81296 11.8033 6.71038 12.0645 6.71238 12.3799C6.71438 12.695 6.81896 12.9562 7.02613 13.1634L9.78063 15.9179C10.01 16.1457 10.2775 16.2596 10.5834 16.2596C10.889 16.2596 11.1559 16.1457 11.3839 15.9179L16.9441 10.3574C17.1515 10.1502 17.2551 9.89005 17.2551 9.57688C17.2551 9.26355 17.1515 9.0033 16.9441 8.79613C16.737 8.5888 16.4757 8.48513 16.1604 8.48513C15.8452 8.48513 15.584 8.5888 15.3769 8.79613L10.5821 13.5906ZM12.0001 22.2031C10.585 22.2031 9.25713 21.9355 8.01663 21.4001C6.77596 20.8648 5.69679 20.1384 4.77912 19.2209C3.86162 18.3032 3.13521 17.224 2.59987 15.9834C2.06454 14.7429 1.79688 13.415 1.79688 11.9999C1.79688 10.5847 2.06454 9.25688 2.59987 8.01638C3.13521 6.77571 3.86162 5.69655 4.77912 4.77888C5.69679 3.86138 6.77596 3.13496 8.01663 2.59963C9.25713 2.0643 10.585 1.79663 12.0001 1.79663C13.4153 1.79663 14.7431 2.0643 15.9836 2.59963C17.2243 3.13496 18.3035 3.86138 19.2211 4.77888C20.1386 5.69655 20.865 6.77571 21.4004 8.01638C21.9357 9.25688 22.2034 10.5847 22.2034 11.9999C22.2034 13.415 21.9357 14.7429 21.4004 15.9834C20.865 17.224 20.1386 18.3032 19.2211 19.2209C18.3035 20.1384 17.2243 20.8648 15.9836 21.4001C14.7431 21.9355 13.4153 22.2031 12.0001 22.2031Z" fill="#232936"/>
</g>
</svg>
