<svg width="24" height="24" viewBox="0 0 24 24" fill="none" xmlns="http://www.w3.org/2000/svg">
<path d="M9.99887 13.4026L15.8031 7.59814C16.0185 7.38297 16.2837 7.27539 16.5989 7.27539C16.914 7.27539 17.1793 7.38297 17.3946 7.59814C17.6098 7.81347 17.7174 8.07972 17.7174 8.39689C17.7174 8.71406 17.6098 8.98031 17.3946 9.19564L10.8006 15.7956C10.5726 16.0235 10.3054 16.1374 9.99887 16.1374C9.69237 16.1374 9.42512 16.0235 9.19712 15.7956L6.59712 13.1956C6.38195 12.9803 6.27537 12.7141 6.27737 12.3969C6.27937 12.0797 6.38796 11.8135 6.60312 11.5981C6.81846 11.383 7.0847 11.2754 7.40187 11.2754C7.71904 11.2754 7.98529 11.383 8.20062 11.5981L9.99887 13.4026Z" fill="#232936"/>
</svg>
