<svg width="24" height="24" viewBox="0 0 24 24" fill="none" xmlns="http://www.w3.org/2000/svg">
<mask id="mask0_1214_6154" style="mask-type:alpha" maskUnits="userSpaceOnUse" x="0" y="0" width="24" height="24">
<rect width="24" height="24" fill="#D9D9D9"/>
</mask>
<g mask="url(#mask0_1214_6154)">
<path d="M12.8351 16.8664C13.0606 16.6417 13.1734 16.3634 13.1734 16.0314C13.1734 15.6994 13.0611 15.4195 12.8366 15.1919C12.612 14.9644 12.3335 14.8506 12.0014 14.8506C11.6694 14.8506 11.3906 14.9644 11.1651 15.1919C10.9396 15.4195 10.8269 15.6994 10.8269 16.0314C10.8269 16.3634 10.9391 16.6417 11.1636 16.8664C11.3883 17.091 11.6667 17.2034 11.9989 17.2034C12.3309 17.2034 12.6096 17.091 12.8351 16.8664ZM12.8084 12.6826C13.0279 12.4631 13.1376 12.1938 13.1376 11.8746V8.01212C13.1376 7.69296 13.0279 7.42354 12.8084 7.20388C12.5887 6.98438 12.3193 6.87462 12.0001 6.87462C11.681 6.87462 11.4115 6.98438 11.1919 7.20388C10.9724 7.42354 10.8626 7.69296 10.8626 8.01212V11.8746C10.8626 12.1938 10.9724 12.4631 11.1919 12.6826C11.4115 12.9023 11.681 13.0121 12.0001 13.0121C12.3193 13.0121 12.5887 12.9023 12.8084 12.6826ZM12.0001 22.2034C10.585 22.2034 9.25713 21.9357 8.01663 21.4004C6.77596 20.865 5.69679 20.1386 4.77912 19.2211C3.86162 18.3035 3.13521 17.2243 2.59987 15.9836C2.06454 14.7431 1.79688 13.4153 1.79688 12.0001C1.79688 10.585 2.06454 9.25712 2.59987 8.01662C3.13521 6.77596 3.86162 5.69679 4.77912 4.77912C5.69679 3.86162 6.77596 3.13521 8.01663 2.59987C9.25713 2.06454 10.585 1.79688 12.0001 1.79688C13.4153 1.79688 14.7431 2.06454 15.9836 2.59987C17.2243 3.13521 18.3035 3.86162 19.2211 4.77912C20.1386 5.69679 20.865 6.77596 21.4004 8.01662C21.9357 9.25712 22.2034 10.585 22.2034 12.0001C22.2034 13.4153 21.9357 14.7431 21.4004 15.9836C20.865 17.2243 20.1386 18.3035 19.2211 19.2211C18.3035 20.1386 17.2243 20.865 15.9836 21.4004C14.7431 21.9357 13.4153 22.2034 12.0001 22.2034Z" fill="#4F5566"/>
</g>
</svg>
