<svg width="24" height="24" viewBox="0 0 24 24" fill="none" xmlns="http://www.w3.org/2000/svg">
<mask id="mask0_1325_10806" style="mask-type:alpha" maskUnits="userSpaceOnUse" x="0" y="0" width="24" height="24">
<rect width="24" height="24" fill="#D9D9D9"/>
</mask>
<g mask="url(#mask0_1325_10806)">
<path d="M3.68247 10.3935H5.11947C5.36397 10.3935 5.56805 10.4752 5.73172 10.6387C5.89522 10.8024 5.97697 11.0065 5.97697 11.251C5.97697 11.4955 5.89522 11.6996 5.73172 11.8632C5.56805 12.0267 5.36397 12.1085 5.11947 12.1085H1.89922C1.58005 12.1085 1.31072 11.9987 1.09122 11.7792C0.871552 11.5597 0.761719 11.2903 0.761719 10.971V7.75097C0.761719 7.50647 0.843552 7.30239 1.00722 7.13872C1.17089 6.97522 1.37497 6.89347 1.61947 6.89347C1.86397 6.89347 2.06805 6.97522 2.23172 7.13872C2.39522 7.30239 2.47697 7.50647 2.47697 7.75097V9.18797L4.68197 6.98297C4.8518 6.81314 5.05272 6.72822 5.28472 6.72822C5.51655 6.72822 5.71747 6.81314 5.88747 6.98297C6.0573 7.15297 6.14222 7.35389 6.14222 7.58572C6.14222 7.81755 6.0573 8.01847 5.88747 8.18847L3.68247 10.3935ZM10.3935 3.68247L8.18847 5.88747C8.01847 6.0573 7.81755 6.14222 7.58572 6.14222C7.35389 6.14222 7.15297 6.0573 6.98297 5.88747C6.81314 5.71747 6.72822 5.51655 6.72822 5.28472C6.72822 5.05272 6.81314 4.8518 6.98297 4.68197L9.18797 2.47697H7.75097C7.50647 2.47697 7.30239 2.39522 7.13872 2.23172C6.97522 2.06805 6.89347 1.86397 6.89347 1.61947C6.89347 1.37497 6.97522 1.17089 7.13872 1.00722C7.30239 0.843552 7.50647 0.761719 7.75097 0.761719H10.971C11.2903 0.761719 11.5597 0.871552 11.7792 1.09122C11.9987 1.31072 12.1085 1.58005 12.1085 1.89922V5.11947C12.1085 5.36397 12.0267 5.56805 11.8632 5.73172C11.6996 5.89522 11.4955 5.97697 11.251 5.97697C11.0065 5.97697 10.8024 5.89522 10.6387 5.73172C10.4752 5.56805 10.3935 5.36397 10.3935 5.11947V3.68247ZM14.4612 23.2402C14.0532 23.2402 13.66 23.1632 13.2815 23.0092C12.9028 22.8552 12.5698 22.6326 12.2825 22.3412L7.68522 17.671C7.50505 17.491 7.42139 17.2721 7.43422 17.0142C7.44689 16.7566 7.54122 16.5356 7.71722 16.3515C8.02372 16.0211 8.39005 15.8001 8.81622 15.6885C9.24222 15.5768 9.66414 15.587 10.082 15.719L11.6185 16.182V8.03672C11.6185 7.73355 11.7222 7.47814 11.9297 7.27047C12.1374 7.06297 12.3928 6.95922 12.696 6.95922C12.9993 6.95922 13.2548 7.06297 13.4625 7.27047C13.67 7.47814 13.7737 7.73355 13.7737 8.03672V15.0967H14.7737V11.977C14.7737 11.6738 14.8776 11.4184 15.0852 11.2107C15.2929 11.0031 15.5483 10.8992 15.8515 10.8992C16.1548 10.8992 16.4102 11.0031 16.6177 11.2107C16.8254 11.4184 16.9292 11.6738 16.9292 11.977V15.0967H17.9292V12.977C17.9292 12.6738 18.0331 12.4184 18.2407 12.2107C18.4482 12.0031 18.7036 11.8992 19.007 11.8992C19.3101 11.8992 19.5656 12.0031 19.7732 12.2107C19.9809 12.4184 20.0847 12.6738 20.0847 12.977V15.0967H21.0847V14.977C21.0847 14.6738 21.1885 14.4184 21.396 14.2107C21.6036 14.0031 21.8591 13.8992 22.1625 13.8992C22.4656 13.8992 22.7211 14.0031 22.9287 14.2107C23.1364 14.4184 23.2402 14.6738 23.2402 14.977V19.1625C23.2402 20.2863 22.8416 21.2469 22.0442 22.0442C21.2469 22.8416 20.2863 23.2402 19.1625 23.2402H14.4612Z" fill="#232936"/>
</g>
</svg>
