<svg width="24" height="24" viewBox="0 0 24 24" fill="none" xmlns="http://www.w3.org/2000/svg">
<mask id="mask0_1374_3530" style="mask-type:alpha" maskUnits="userSpaceOnUse" x="0" y="0" width="24" height="24">
<rect width="24" height="24" fill="#D9D9D9"/>
</mask>
<g mask="url(#mask0_1374_3530)">
<path d="M8.19722 13.1376L10.826 15.7664C11.05 15.9904 11.1588 16.2556 11.1525 16.5621C11.1461 16.8686 11.0373 17.1338 10.826 17.3576C10.6021 17.5816 10.3338 17.6968 10.021 17.7031C9.70797 17.7095 9.43955 17.6007 9.21572 17.3769L4.63472 12.8019C4.40689 12.5739 4.29297 12.3066 4.29297 12.0001C4.29297 11.6936 4.40689 11.4264 4.63472 11.1984L9.21572 6.62339C9.43955 6.39955 9.70797 6.2908 10.021 6.29714C10.3338 6.30347 10.6021 6.41864 10.826 6.64264C11.0373 6.86647 11.1461 7.13164 11.1525 7.43814C11.1588 7.74464 11.05 8.00989 10.826 8.23389L8.19722 10.8626H19.0305C19.3496 10.8626 19.619 10.9724 19.8385 11.1919C20.0581 11.4116 20.168 11.681 20.168 12.0001C20.168 12.3193 20.0581 12.5887 19.8385 12.8084C19.619 13.0279 19.3496 13.1376 19.0305 13.1376H8.19722Z" fill="#232936"/>
</g>
</svg>
