<svg width="24" height="24" viewBox="0 0 24 24" fill="none" xmlns="http://www.w3.org/2000/svg">
<path d="M12.4298 12.0104L8.62534 8.2061C8.41418 7.99477 8.30859 7.72952 8.30859 7.41035C8.30859 7.09118 8.41418 6.82593 8.62534 6.6146C8.83668 6.40343 9.10193 6.29785 9.42109 6.29785C9.74026 6.29785 10.0055 6.40343 10.2168 6.6146L14.8108 11.2086C14.9227 11.3206 15.0044 11.4449 15.0561 11.5816C15.1078 11.7181 15.1336 11.861 15.1336 12.0104C15.1336 12.1597 15.1078 12.3026 15.0561 12.4391C15.0044 12.5758 14.9227 12.7001 14.8108 12.8121L10.2168 17.4061C10.0055 17.6173 9.74026 17.7229 9.42109 17.7229C9.10193 17.7229 8.83668 17.6173 8.62534 17.4061C8.41418 17.1948 8.30859 16.9295 8.30859 16.6104C8.30859 16.2912 8.41418 16.0259 8.62534 15.8146L12.4298 12.0104Z" fill="#4F5566"/>
</svg>
