<svg width="20" height="20" viewBox="0 0 20 20" fill="none" xmlns="http://www.w3.org/2000/svg">
<mask id="mask0_1187_5131" style="mask-type:alpha" maskUnits="userSpaceOnUse" x="0" y="0" width="20" height="20">
<rect width="20" height="20" fill="#D9D9D9"/>
</mask>
<g mask="url(#mask0_1187_5131)">
<path d="M10 11.4946L6.82962 14.6739C6.62908 14.8732 6.37391 14.9728 6.06413 14.9728C5.75435 14.9728 5.49928 14.8732 5.29891 14.6739C5.09964 14.4746 5 14.221 5 13.913C5 13.6051 5.09964 13.3514 5.29891 13.1522L8.47826 9.97283L5.29891 6.82962C5.09964 6.62908 5 6.37391 5 6.06413C5 5.75435 5.09964 5.49928 5.29891 5.29891C5.49819 5.09964 5.75181 5 6.05978 5C6.36775 5 6.62138 5.09964 6.82065 5.29891L10 8.47826L13.1432 5.29891C13.3438 5.09964 13.5989 5 13.9087 5C14.2185 5 14.4736 5.09964 14.6739 5.29891C14.8913 5.5163 15 5.77446 15 6.07337C15 6.37228 14.8913 6.62138 14.6739 6.82065L11.4946 9.97283L14.6739 13.1432C14.8732 13.3438 14.9728 13.5989 14.9728 13.9087C14.9728 14.2185 14.8732 14.4736 14.6739 14.6739C14.4565 14.8913 14.1984 15 13.8995 15C13.6005 15 13.3514 14.8913 13.1522 14.6739L10 11.4946Z" fill="#8E96A9"/>
</g>
</svg>
