<svg width="24" height="24" viewBox="0 0 24 24" fill="none" xmlns="http://www.w3.org/2000/svg">
<path d="M12.2422 4.5C7.64421 4.5 3.91504 7.4857 3.91504 11.1618C3.91504 13.4117 5.3064 15.4011 7.43522 16.6124L6.78134 20.1189C6.76966 20.181 6.77634 20.2453 6.80055 20.3036C6.82476 20.3619 6.86542 20.4116 6.91742 20.4466C6.96942 20.4815 7.03044 20.5001 7.09282 20.5C7.1552 20.4999 7.21615 20.4811 7.26802 20.4459L11.1823 17.7812C11.5345 17.8177 11.8882 17.8359 12.2422 17.8357C16.8402 17.8357 20.5694 14.85 20.5694 11.1739C20.5694 7.4978 16.8402 4.5 12.2422 4.5Z" fill="#232936"/>
</svg>
