<svg width="36" height="36" viewBox="0 0 36 36" fill="none" xmlns="http://www.w3.org/2000/svg">
<mask id="mask0_1187_5119" style="mask-type:alpha" maskUnits="userSpaceOnUse" x="0" y="0" width="36" height="36">
<rect width="36" height="36" fill="#D9D9D9"/>
</mask>
<g mask="url(#mask0_1187_5119)">
<path d="M18.0002 26.3218C19.8932 26.3218 21.5034 25.6582 22.8309 24.3309C24.1582 23.0034 24.8218 21.3932 24.8218 19.5002C24.8218 17.6072 24.1582 15.9969 22.8309 14.6694C21.5034 13.3422 19.8932 12.6786 18.0002 12.6786C16.1072 12.6786 14.4969 13.3422 13.1694 14.6694C11.8422 15.9969 11.1786 17.6072 11.1786 19.5002C11.1786 21.3932 11.8422 23.0034 13.1694 24.3309C14.4969 25.6582 16.1072 26.3218 18.0002 26.3218ZM18.0002 23.0889C16.9919 23.0889 16.1418 22.7428 15.4498 22.0506C14.7576 21.3586 14.4114 20.5084 14.4114 19.5002C14.4114 18.4919 14.7576 17.6418 15.4498 16.9498C16.1418 16.2576 16.9919 15.9114 18.0002 15.9114C19.0084 15.9114 19.8586 16.2576 20.5506 16.9498C21.2428 17.6418 21.5889 18.4919 21.5889 19.5002C21.5889 20.5084 21.2428 21.3586 20.5506 22.0506C19.8586 22.7428 19.0084 23.0889 18.0002 23.0889ZM6.10781 31.8051C5.16331 31.8051 4.35844 31.4724 3.69319 30.8072C3.02794 30.1419 2.69531 29.3371 2.69531 28.3926V10.6078C2.69531 9.66331 3.02794 8.85844 3.69319 8.19319C4.35844 7.52794 5.16331 7.19531 6.10781 7.19531H10.5639L12.4566 5.23294C12.7676 4.90919 13.1377 4.65531 13.5669 4.47131C13.9964 4.28731 14.4416 4.19531 14.9023 4.19531H21.0981C21.5588 4.19531 22.0039 4.28731 22.4334 4.47131C22.8627 4.65531 23.2328 4.90919 23.5438 5.23294L25.4364 7.19531H29.8926C30.8371 7.19531 31.6419 7.52794 32.3072 8.19319C32.9724 8.85844 33.3051 9.66331 33.3051 10.6078V28.3926C33.3051 29.3371 32.9724 30.1419 32.3072 30.8072C31.6419 31.4724 30.8371 31.8051 29.8926 31.8051H6.10781Z" fill="#232936"/>
</g>
</svg>
