<svg width="24" height="24" viewBox="0 0 24 24" fill="none" xmlns="http://www.w3.org/2000/svg">
<mask id="mask0_1374_1703" style="mask-type:alpha" maskUnits="userSpaceOnUse" x="0" y="0" width="24" height="24">
<rect width="24" height="24" fill="#D9D9D9"/>
</mask>
<g mask="url(#mask0_1374_1703)">
<path d="M12 13.7935L8.19554 17.6087C7.95489 17.8478 7.6487 17.9674 7.27696 17.9674C6.90522 17.9674 6.59913 17.8478 6.3587 17.6087C6.11957 17.3696 6 17.0652 6 16.6957C6 16.3261 6.11957 16.0217 6.3587 15.7826L10.1739 11.9674L6.3587 8.19554C6.11957 7.95489 6 7.64869 6 7.27696C6 6.90522 6.11957 6.59913 6.3587 6.3587C6.59783 6.11957 6.90217 6 7.27174 6C7.6413 6 7.94565 6.11957 8.18478 6.3587L12 10.1739L15.7718 6.3587C16.0125 6.11957 16.3187 6 16.6904 6C17.0622 6 17.3683 6.11957 17.6087 6.3587C17.8696 6.61957 18 6.92935 18 7.28804C18 7.64674 17.8696 7.94565 17.6087 8.18478L13.7935 11.9674L17.6087 15.7718C17.8478 16.0125 17.9674 16.3187 17.9674 16.6904C17.9674 17.0622 17.8478 17.3683 17.6087 17.6087C17.3478 17.8696 17.038 18 16.6793 18C16.3207 18 16.0217 17.8696 15.7826 17.6087L12 13.7935Z" fill="#232936"/>
</g>
</svg>
