<svg width="24" height="24" viewBox="0 0 24 24" fill="none" xmlns="http://www.w3.org/2000/svg">
<mask id="mask0_1187_5841" style="mask-type:alpha" maskUnits="userSpaceOnUse" x="0" y="0" width="24" height="24">
<rect width="24" height="24" fill="#D9D9D9"/>
</mask>
<g mask="url(#mask0_1187_5841)">
<path d="M19.669 6.92C19.4674 6.71917 19.3665 6.47025 19.3665 6.17325V5.1555H18.3428C18.0476 5.1555 17.8002 5.05467 17.6005 4.853C17.4007 4.65133 17.3008 4.40292 17.3008 4.10775C17.3008 3.81242 17.4012 3.56492 17.602 3.36525C17.8029 3.16558 18.0518 3.06575 18.3488 3.06575H19.3665V2.04775C19.3665 1.75092 19.4674 1.50208 19.669 1.30125C19.8707 1.10042 20.1192 1 20.4145 1C20.7097 1 20.9581 1.10042 21.1598 1.30125C21.3614 1.50208 21.4623 1.75092 21.4623 2.04775V3.06575H22.4803C22.7754 3.06575 23.0229 3.16558 23.2225 3.36525C23.4222 3.56492 23.522 3.81242 23.522 4.10775C23.522 4.40292 23.4222 4.65133 23.2225 4.853C23.0229 5.05467 22.7754 5.1555 22.4803 5.1555H21.4623V6.17325C21.4623 6.47025 21.3614 6.71917 21.1598 6.92C20.9581 7.12083 20.7097 7.22125 20.4145 7.22125C20.1192 7.22125 19.8707 7.12083 19.669 6.92ZM12.0025 17.538C13.2655 17.538 14.3395 17.096 15.2245 16.212C16.1094 15.328 16.5518 14.2546 16.5518 12.9918C16.5518 11.7288 16.1098 10.6548 15.2258 9.76978C14.3418 8.88495 13.2684 8.44254 12.0055 8.44254C10.7425 8.44254 9.66853 8.88453 8.78353 9.76853C7.8987 10.6525 7.45628 11.726 7.45628 12.9888C7.45628 14.2518 7.89828 15.3258 8.78228 16.2108C9.66628 17.0956 10.7397 17.538 12.0025 17.538ZM12.004 15.3828C11.3319 15.3828 10.7651 15.152 10.3038 14.6905C9.84228 14.2292 9.61153 13.6625 9.61153 12.9903C9.61153 12.3181 9.84228 11.7514 10.3038 11.29C10.7651 10.8285 11.3319 10.5978 12.004 10.5978C12.6762 10.5978 13.2429 10.8285 13.7043 11.29C14.1658 11.7514 14.3965 12.3181 14.3965 12.9903C14.3965 13.6625 14.1658 14.2292 13.7043 14.6905C13.2429 15.152 12.6762 15.3828 12.004 15.3828ZM4.07578 21.1935C3.44611 21.1935 2.90953 20.9718 2.46603 20.5283C2.02253 20.0848 1.80078 19.5482 1.80078 18.9185V7.06203C1.80078 6.43237 2.02253 5.89578 2.46603 5.45228C2.90953 5.00878 3.44611 4.78703 4.07578 4.78703H7.04653L8.30828 3.47878C8.51562 3.26295 8.76236 3.0937 9.04853 2.97103C9.33486 2.84837 9.63162 2.78703 9.93878 2.78703H14.9083C15.2276 2.78703 15.497 2.89678 15.7165 3.11628C15.936 3.33595 16.0458 3.60537 16.0458 3.92453V5.44254C16.0458 5.84087 16.1853 6.17945 16.4643 6.45828C16.7431 6.73728 17.0817 6.87679 17.48 6.87679H18.1115V7.50228C18.1115 7.90228 18.2516 8.24229 18.5318 8.52229C18.8118 8.80245 19.1518 8.94254 19.5518 8.94254H21.0698C21.3889 8.94254 21.6584 9.05228 21.878 9.27178C22.0975 9.49128 22.2073 9.7607 22.2073 10.08V18.9185C22.2073 19.5482 21.9855 20.0848 21.542 20.5283C21.0985 20.9718 20.5619 21.1935 19.9323 21.1935H4.07578Z" fill="white"/>
</g>
</svg>
