<svg width="24" height="24" viewBox="0 0 24 24" fill="none" xmlns="http://www.w3.org/2000/svg">
<path d="M12.2432 4.5C7.64519 4.5 3.91602 7.4857 3.91602 11.1618C3.91602 13.4117 5.30737 15.4011 7.4362 16.6124L6.78232 20.1189C6.77064 20.181 6.77732 20.2453 6.80153 20.3036C6.82574 20.3619 6.8664 20.4116 6.9184 20.4466C6.97039 20.4815 7.03142 20.5001 7.0938 20.5C7.15617 20.4999 7.21712 20.4811 7.269 20.4459L11.1833 17.7812C11.5354 17.8177 11.8892 17.8359 12.2432 17.8357C16.8412 17.8357 20.5704 14.85 20.5704 11.1739C20.5704 7.4978 16.8412 4.5 12.2432 4.5Z" fill="#3C1E1E"/>
</svg>
