<svg width="60" height="60" viewBox="0 0 60 60" fill="none" xmlns="http://www.w3.org/2000/svg">
<g clip-path="url(#clip0_1214_3661)">
<path d="M4.12411 9.41901L8.33761 24.6665L22.5411 12.9335L8.36461 5.91651C6.03061 4.76151 3.42961 6.90951 4.12411 9.42051V9.41901Z" fill="#2272EB"/>
<path d="M40.7114 41.4186H33.8189C33.0539 41.4186 32.4344 40.7991 32.4344 40.0341C32.4344 39.2691 33.0539 38.6496 33.8189 38.6496H51.1274C51.3824 38.6496 51.6254 38.6106 51.8624 38.5521C52.3049 36.7221 52.5644 34.8216 52.5644 32.8566C52.5644 32.8371 52.5614 32.8206 52.5614 32.8011C52.1324 32.5746 51.6464 32.4411 51.1274 32.4411C49.4159 32.4411 48.0239 33.8331 48.0239 35.5461C48.0239 36.3111 47.4044 36.9306 46.6394 36.9306C45.8744 36.9306 45.2564 36.3111 45.2564 35.5461C45.2564 32.3076 47.8904 29.6736 51.1274 29.6736C51.5504 29.6736 51.9569 29.7336 52.3544 29.8191C50.8574 17.8821 40.6919 8.64062 28.3484 8.64062C14.9729 8.64063 4.13086 19.4826 4.13086 32.8581C4.13086 46.2336 14.9729 57.0741 28.3469 57.0741C38.7029 57.0741 47.5154 50.5611 50.9774 41.4186H40.7114Z" fill="#FFC84D"/>
<path d="M28.0605 7.59505L26.0054 5.14474C25.5774 4.63441 24.8168 4.56767 24.3064 4.99568L21.8561 7.05072C21.3458 7.47872 21.279 8.2394 21.7071 8.74973L23.7621 11.2C24.1901 11.7104 24.9508 11.7771 25.4611 11.3491L27.9114 9.29407C28.4218 8.86606 28.4885 8.10539 28.0605 7.59505Z" fill="#B44BD7"/>
<path d="M44.923 10.7005L41.3524 12.5015C40.6098 12.876 40.3115 13.7817 40.686 14.5243L42.487 18.0948C42.8615 18.8375 43.7672 19.1358 44.5098 18.7613L48.0804 16.9603C48.823 16.5857 49.1213 15.6801 48.7468 14.9375L46.9458 11.3669C46.5713 10.6243 45.6656 10.326 44.923 10.7005Z" fill="#F66570"/>
<path d="M23.7955 46.7382L20.6834 47.4743C20.0352 47.6277 19.6341 48.2774 19.7874 48.9256L20.5235 52.0377C20.6768 52.6859 21.3266 53.087 21.9747 52.9337L25.0868 52.1976C25.735 52.0443 26.1362 51.3945 25.9829 50.7464L25.2467 47.6342C25.0934 46.9861 24.4437 46.5849 23.7955 46.7382Z" fill="white"/>
<path d="M10.9626 43.512L9.75114 39.7009C9.49918 38.9082 8.65234 38.4699 7.85968 38.7218L4.0486 39.9333C3.25594 40.1852 2.81762 41.0321 3.06958 41.8247L4.28102 45.6358C4.53298 46.4285 5.37982 46.8668 6.17248 46.6148L9.98357 45.4034C10.7762 45.1514 11.2145 44.3046 10.9626 43.512Z" fill="#6376FF"/>
<path d="M56.5742 33.3913C55.8587 31.5913 54.2792 30.2368 52.3517 29.8213C51.9542 29.7358 51.5477 29.6758 51.1247 29.6758C47.8862 29.6758 45.2537 32.3098 45.2537 35.5483C45.2537 36.3133 45.8732 36.9328 46.6367 36.9328C47.4002 36.9328 48.0212 36.3133 48.0212 35.5483C48.0212 33.8368 49.4132 32.4433 51.1247 32.4433C51.6437 32.4433 52.1297 32.5768 52.5587 32.8033C53.3222 33.2083 53.8997 33.9208 54.1202 34.7788C54.1832 35.0263 54.2282 35.2813 54.2282 35.5483C54.2282 37.0063 53.2157 38.2228 51.8597 38.5543C51.6227 38.6128 51.3782 38.6518 51.1247 38.6518H33.8162C33.7622 38.6518 33.7157 38.6773 33.6632 38.6833C33.3992 38.8993 33.1247 39.0958 32.8652 39.2923C33.5132 39.7813 34.3157 40.5358 34.7492 41.4208H51.1232C54.3617 41.4208 56.9942 38.7868 56.9942 35.5498C56.9942 34.7863 56.8382 34.0618 56.5712 33.3928L56.5742 33.3913Z" fill="#2272EB"/>
<path d="M34.3165 7.43876C35.5625 7.43876 36.5725 6.42871 36.5725 5.18276C36.5725 3.9368 35.5625 2.92676 34.3165 2.92676C33.0706 2.92676 32.0605 3.9368 32.0605 5.18276C32.0605 6.42871 33.0706 7.43876 34.3165 7.43876Z" fill="#EDCCF8"/>
<path d="M7.36342 54.3909C8.60938 54.3909 9.61942 53.3809 9.61942 52.1349C9.61942 50.889 8.60938 49.8789 7.36342 49.8789C6.11747 49.8789 5.10742 50.889 5.10742 52.1349C5.10742 53.3809 6.11747 54.3909 7.36342 54.3909Z" fill="#EDCCF8"/>
<path d="M49.4064 53.9222C50.6523 53.9222 51.6624 52.9121 51.6624 51.6662C51.6624 50.4202 50.6523 49.4102 49.4064 49.4102C48.1604 49.4102 47.1504 50.4202 47.1504 51.6662C47.1504 52.9121 48.1604 53.9222 49.4064 53.9222Z" fill="#B44BD7"/>
<path d="M53.5138 22.1018C54.7598 22.1018 55.7698 21.0918 55.7698 19.8458C55.7698 18.5999 54.7598 17.5898 53.5138 17.5898C52.2679 17.5898 51.2578 18.5999 51.2578 19.8458C51.2578 21.0918 52.2679 22.1018 53.5138 22.1018Z" fill="#7896FF"/>
<path d="M32.8667 39.2913C33.1262 39.0948 33.4007 38.8983 33.6647 38.6823C34.3817 38.0958 35.0027 37.3638 34.9247 36.0738C34.7792 33.6663 30.9512 32.9883 30.4472 32.9883C29.9297 32.9883 29.6072 33.0378 29.6027 33.3528C29.5982 33.6678 29.9762 33.7758 30.5192 33.9393C32.1797 34.4403 32.8337 35.4108 32.8337 36.1023C32.8337 37.3623 31.6022 37.9863 30.9017 38.4363C30.3332 38.8023 29.9732 38.8908 29.9582 39.2013C29.9462 39.4668 30.3182 39.6033 30.8987 39.9723C31.4792 40.3413 32.7392 41.1723 32.7392 42.5748C32.7392 43.6578 31.8212 44.4738 30.5162 44.9913C29.7347 45.3018 29.4347 45.4398 29.4812 45.7368C29.5277 46.0338 29.9492 46.0953 30.6437 46.0953C31.8182 46.0953 34.8707 45.4638 35.0582 42.8013C35.0927 42.3183 34.9622 41.8548 34.7492 41.4198C34.3157 40.5348 33.5132 39.7803 32.8667 39.2913Z" fill="#FF6D00"/>
<path d="M17.5641 28.7827C17.2101 28.9987 16.7556 28.7137 16.8021 28.3027C17.0631 26.0122 18.8511 24.1537 21.1701 23.9497C23.4891 23.7472 25.5726 25.2667 26.2266 27.4777C26.3436 27.8752 25.9461 28.2337 25.5606 28.0837C24.7176 27.7552 23.2941 27.3727 21.4836 27.5317C19.6731 27.6907 18.3381 28.3132 17.5641 28.7827Z" fill="black"/>
<path d="M40.6364 28.783C40.9904 28.999 41.4449 28.714 41.3984 28.303C41.1374 26.0125 39.3494 24.154 37.0304 23.95C34.7114 23.746 32.6279 25.267 31.9739 27.478C31.8569 27.8755 32.2544 28.234 32.6399 28.084C33.4829 27.7555 34.9064 27.373 36.7169 27.532C38.5274 27.691 39.8624 28.3135 40.6364 28.783Z" fill="black"/>
</g>
<defs>
<clipPath id="clip0_1214_3661">
<rect width="60" height="60" fill="white"/>
</clipPath>
</defs>
</svg>
